# xmcd
#
# Track frame offsets: 
#        150
#        20010
#        31037
#
# Disc length: 569 seconds
#
# Revision: 3
# Processed by: cddbd v1.5.2PL0 Copyright (c) Steve Scherf et al.
# Submitted via: ExactAudioCopy v0.99pb4
#
DISCID=18023703
DTITLE=Screamin' Jay Hawkins - Heart Attack and Vine
DYEAR=1900
DGENRE=Blues
TTITLE0=Heart Attack and Vine
TTITLE1=I Put A Spell On You
TTITLE2=On The Job
EXTD=
EXTT0=
EXTT1=
EXTT2=
PLAYORDER=
